<svg version="1.2" xmlns="http://www.w3.org/2000/svg" viewBox="0 0 800 480" width="800" height="480">
	<title>Proyecto nuevo</title>
	<style>
		.s0 { fill: #ffffff;stroke: #000000;stroke-miterlimit:100;stroke-width: 3 } 
		.s1 { fill: #000000 } 
		.s2 { fill: #808080;stroke: #000000;stroke-miterlimit:100;stroke-width: 2 } 
		.s3 { fill: #ff0000;stroke: #000000;stroke-miterlimit:100;stroke-width: 2 } 
		.s4 { fill: #0000ff;stroke: #000000;stroke-miterlimit:100;stroke-width: 2 } 
		.s5 { fill: #00ff00;stroke: #000000;stroke-miterlimit:100;stroke-width: 2 } 
		.s6 { fill: #000000;stroke: #000000;stroke-miterlimit:100;stroke-width: 2 } 
	</style>
	<path id="Capa 3" class="s0" d="m47 7h706c22.1 0 40 17.9 40 40v386c0 22.1-17.9 40-40 40h-706c-22.1 0-40-17.9-40-40v-386c0-22.1 17.9-40 40-40z"/>
	<g id="Carpeta 1">
		<path id="Forma 1" fill-rule="evenodd" class="s1" d="m758 112v282.2h-268v-282.2zm-264.7 8.4v265.2h260.7v-265.2z"/>
		<path id="Capa 1" class="s2" d="m505 205v95h-29v-95z"/>
		<path id="Capa 1 copy" class="s2" d="m770 206v95h-29v-95z"/>
		<path id="Capa 1 copy 2" class="s2" d="m576 99h95v29h-95z"/>
		<path id="Za" class="s1" aria-label="Za"  d="m617.9 78.3q1.4-0.1 7.1-0.2 0.7 0 1.7-0.1 0.9 0 2.1-0.1-0.2 1.2-0.2 2.3 0 1.1 0 2.8h-18.4v-5.4q1.3-0.7 2.8-1.8 1.6-1.1 4.1-2.9 2.3-1.6 3.3-2.4-1.9 0.1-7.6 0.3-2 0.1-2.6 0.1 0-1.7-0.1-2.9 0-1.2-0.1-2.4h18.6v5.4q-1.3 0.8-4.7 3.2-3.9 2.8-6 4.1zm22.8 0.1v1.9q0 0.6 0.1 0.8 0.1 0.2 0.5 0.3l-0.1 1.5q-0.5 0.1-0.9 0.1-0.3 0.1-1 0.1-1.3 0-1.8-0.6-0.4-0.7-0.4-1.6v-0.4q-0.5 1.3-1.4 1.9-0.9 0.7-2.2 0.7-1.6 0-2.5-0.7-0.8-0.6-0.8-1.9 0-1 0.7-1.6 0.7-0.6 2.2-0.8-1.3-0.9-2.5-1.5 1-1.2 2.2-1.9 1.2-0.6 3-0.6 2.5 0 3.7 1.1 1.2 1 1.2 3.2zm-4.6-1.5q-0.8 0-1.4 0.3-0.6 0.3-1.1 0.8 0.9-0.1 2.4-0.1 0.6 0 0.8-0.1 0.3-0.2 0.3-0.4 0-0.2-0.3-0.3-0.2-0.2-0.7-0.2zm-1.6 3.6q0.9 0 1.6-0.4 0.7-0.3 1-0.9v-0.4q-0.4 0.2-0.9 0.3-0.4 0.1-1.1 0.2l-0.6 0.1q-0.9 0.2-0.9 0.6 0 0.5 0.9 0.5z"/>
		<path id="Zb" class="s1" aria-label="Zb"  d="m527.9 257.3q1.4-0.1 7.1-0.2 0.7 0 1.7-0.1 0.9 0 2.1-0.1-0.2 1.2-0.2 2.3 0 1.1 0 2.8h-18.4v-5.4q1.3-0.7 2.8-1.8 1.6-1.1 4.1-2.9 2.3-1.6 3.3-2.4-1.9 0.1-7.6 0.3-2 0.1-2.6 0.1 0-1.7-0.1-2.9 0-1.2-0.1-2.4h18.6v5.4q-1.3 0.8-4.7 3.2-3.9 2.8-6 4.1zm19.4-4.2q1.1 0 1.9 0.7 0.9 0.6 1.4 1.7 0.4 1 0.4 2.2 0 1.2-0.4 2.3-0.5 1-1.3 1.6-0.9 0.6-1.9 0.6-1.2 0-2.1-0.6-0.9-0.5-1.4-1.6l-0.4 2h-3.1q0.1-3 0.1-6.2 0-3.3-0.1-6.2h3.6v1.9q-0.1 2.1-0.1 3.7 0.4-1.1 1.3-1.6 0.9-0.5 2.1-0.5zm-1.6 6.4q0.8 0 1.2-0.5 0.5-0.6 0.5-1.4 0-0.7-0.5-1.2-0.5-0.4-1.2-0.4-0.4 0-0.8 0.2-0.4 0.1-0.7 0.5-0.3 0.4-0.3 0.9 0 1 0.5 1.5 0.4 0.4 1.3 0.4z"/>
		<path id="Forma 2" class="s3" d="m493 128c-6.6 0-12-5.4-12-12 0-6.6 5.4-12 12-12 6.6 0 12 5.4 12 12 0 6.6-5.4 12-12 12z"/>
		<path id="Forma 2 copy" class="s4" d="m753 128c-6.6 0-12-5.4-12-12 0-6.6 5.4-12 12-12 6.6 0 12 5.4 12 12 0 6.6-5.4 12-12 12z"/>
		<path id="Forma 2 copy 2" class="s5" d="m624 405c-6.6 0-12-5.4-12-12 0-6.6 5.4-12 12-12 6.6 0 12 5.4 12 12 0 6.6-5.4 12-12 12z"/>
		<path id="Zc" class="s1" aria-label="Zc"  d="m705.9 258.3q1.4-0.1 7.1-0.2 0.7 0 1.7-0.1 0.9 0 2.1-0.1-0.2 1.2-0.2 2.3 0 1.1 0 2.8h-18.4v-5.4q1.3-0.7 2.8-1.8 1.6-1.1 4.1-2.9 2.3-1.6 3.3-2.4-1.9 0.1-7.6 0.3-2 0.1-2.6 0.1 0-1.7-0.1-2.9 0-1.2-0.1-2.4h18.6v5.4q-1.3 0.8-4.7 3.2-3.9 2.8-6 4.1zm15.7 0.3q0.1 0.8 0.6 1.3 0.5 0.5 1.4 0.5 0.5 0 1-0.2 0.4-0.2 0.7-0.6 1.4 0.6 3.2 1-0.5 1.2-1.8 1.9-1.2 0.7-3.2 0.7-2.7 0-4-1.3-1.3-1.2-1.3-3.3 0-2 1.3-3.2 1.3-1.3 4-1.3 2 0 3.2 0.7 1.3 0.7 1.8 1.9-1.4 0.3-3.2 0.9-0.3-0.4-0.7-0.6-0.5-0.2-1-0.2-0.9 0-1.4 0.5-0.5 0.5-0.6 1.3z"/>
	</g>
	<g id="Carpeta 2">
		<path id="Capa 2" class="s6" d="m57.3 126.6v-10.5l293.7 0.6v10.6z"/>
		<path id="Capa 2 copy" class="s6" d="m199.5 118.7h10l-0.7 265.9h-10z"/>
		<path id="Forma 2 copy 3" class="s3" d="m50 133c-6.6 0-12-5.4-12-12 0-6.6 5.4-12 12-12 6.6 0 12 5.4 12 12 0 6.6-5.4 12-12 12z"/>
		<path id="Forma 2 copy 4" class="s4" d="m360 133c-6.6 0-12-5.4-12-12 0-6.6 5.4-12 12-12 6.6 0 12 5.4 12 12 0 6.6-5.4 12-12 12z"/>
		<path id="Forma 2 copy 5" class="s5" d="m204 409c-6.6 0-12-5.4-12-12 0-6.6 5.4-12 12-12 6.6 0 12 5.4 12 12 0 6.6-5.4 12-12 12z"/>
		<path id="Capa 1 copy 3" class="s2" d="m79 106h95v29h-95z"/>
		<path id="Capa 1 copy 4" class="s2" d="m237 106h95v29h-95z"/>
		<path id="Capa 1 copy 5" class="s2" d="m219 210v95h-29v-95z"/>
		<path id="Z1" class="s1" aria-label="Z1"  d="m150.9 262.3q1.4-0.1 7.1-0.2 0.7 0 1.7-0.1 0.9 0 2.1-0.1-0.2 1.2-0.2 2.3 0 1.1 0 2.8h-18.4v-5.4q1.3-0.7 2.8-1.8 1.6-1.1 4.1-2.9 2.3-1.6 3.3-2.4-1.9 0.1-7.6 0.3-2 0.1-2.6 0.1 0-1.7-0.1-2.9 0-1.2-0.1-2.4h18.6v5.4q-1.3 0.8-4.7 3.2-3.9 2.8-6 4.1zm18.9-7.1v8.8q1.5 0 2.2 0v3h-8.5v-3q1.7 0 2.6 0v-5.5q-0.6 1.3-2.3 1.7-0.1-1.9-0.4-3.5 1.3-0.2 1.8-0.4 0.5-0.3 0.8-0.6 0.2-0.3 0.3-0.4v-0.1z"/>
		<path id="Z2" class="s1" aria-label="Z2"  d="m280.9 94.3q1.4-0.1 7.1-0.2 0.7 0 1.7-0.1 0.9 0 2.1-0.1-0.2 1.2-0.2 2.3 0 1.1 0 2.8h-18.4v-5.4q1.3-0.7 2.8-1.8 1.6-1.1 4.1-2.9 2.3-1.6 3.3-2.4-1.9 0.1-7.6 0.3-2 0.1-2.6 0.1 0-1.7-0.1-2.9 0-1.2-0.1-2.4h18.6v5.4q-1.3 0.8-4.7 3.2-3.9 2.8-6 4.1zm16.5 1.9q5.2-0.3 8.1-0.6-0.3 0.8-0.4 1.7-0.2 0.9-0.2 1.7h-11.4v-0.3q0-1.6 0.9-2.8 0.9-1.1 2.6-2.1 0.4-0.3 1.5-0.7 1.3-0.6 2-1 0.7-0.5 0.7-0.9 0-0.6-0.4-0.9-0.5-0.3-1.4-0.3-1.1 0-1.6 0.5-0.5 0.6-0.5 1.4 0 0.2 0 0.5-2-0.2-3.9-0.3 0-1.4 0.7-2.5 0.7-1.1 2.1-1.7 1.5-0.7 3.6-0.7 1.9 0 3.1 0.6 1.3 0.5 1.9 1.3 0.6 0.7 0.6 1.6 0 0.9-0.4 1.6-0.4 0.7-1.2 1.3-0.8 0.5-2.1 1.1-0.2 0.1-0.7 0.2-0.4 0.1-0.5 0.2-1.1 0.3-1.8 0.5-0.7 0.3-1.3 0.6z"/>
		<path id="Z3" class="s1" aria-label="Z3"  d="m118.9 92.3q1.4-0.1 7.1-0.2 0.7 0 1.7-0.1 0.9 0 2.1-0.1-0.2 1.2-0.2 2.3 0 1.1 0 2.8h-18.4v-5.4q1.3-0.7 2.8-1.8 1.6-1.1 4.1-2.9 2.3-1.6 3.3-2.4-1.9 0.1-7.6 0.3-2 0.1-2.6 0.1 0-1.7-0.1-2.9 0-1.2-0.1-2.4h18.6v5.4q-1.3 0.8-4.7 3.2-3.9 2.8-6 4.1zm21.4-1.2q0.6-0.1 1.2-0.1 0.9 0 1.5 0.3 0.7 0.4 0.9 0.9 0.3 0.5 0.3 1 0 1.3-0.8 2.2-0.8 0.8-2.3 1.3-1.4 0.5-3.1 0.5-5.1 0-6.6-3.6l0.9-0.2q1-0.2 1.7-0.4 0.7-0.3 1.2-0.5 0.3 0.8 0.9 1.1 0.6 0.4 1.7 0.4 1.1 0 1.8-0.3 0.7-0.3 0.7-0.8 0-0.2-0.2-0.4-0.3-0.1-0.9-0.2-0.6 0-1.7 0h-1.2v-2.8h0.7q1.3 0 2-0.1 0.8-0.1 0.8-0.5 0-0.4-0.4-0.6-0.4-0.3-1.3-0.3-1.1 0-1.8 0.5-0.7 0.4-1.1 1.3-1.7-0.7-3.6-1 0.7-1.7 2.3-2.6 1.6-1 4.1-1 1.7 0 3 0.5 1.3 0.4 2 1.1 0.8 0.8 0.8 1.7 0 0.5-0.3 1-0.2 0.4-1 0.8-0.7 0.4-2.2 0.8z"/>
	</g>
	<path id="Forma 3" class="s6" d="m340 255.7l0.1-10 103.1 1.3v-7.5l17.4 12.7-17.6 12.3 0.1-7.5z"/>
</svg>